# xmcd
#
# Track frame offsets: 
#        150
#        15645
#        28442
#        39982
#        53515
#        69507
#        80735
#        94545
#        105232
#        118455
#        133770
#        151600
#        164242
#        179137
#        200957
#        218675
#        238595
#        260460
#        282375
#        296222
#        314010
#
# Disc length: 4477 seconds
#
# Revision: 0
# Processed by: cddbd v1.5.2PL0 Copyright (c) Steve Scherf et al.
# Submitted via: ExactAudioCopy v0.99pb4
#
DISCID=44117b15
DTITLE=Shoshana Damari - Ha'shirim Ha'yafim
DYEAR=1994
DGENRE=Country
TTITLE0=Meeshlat Azoov
TTITLE1=Bat Sheva
TTITLE2=Hen Efshar
TTITLE3=Shooa'ley Shimshon
TTITLE4=Hakrav Ha'acharon
TTITLE5=Shoshana
TTITLE6=Hayoo Zmanim
TTITLE7=Cheezbat
TTITLE8=Yatsanoo Att
TTITLE9=Ha'amini Yom Yavo
TTITLE10=Yoodke
TTITLE11=A'yah
TTITLE12=Dudu
TTITLE13=Tsaricih Letsaltsel Pa'amayim
TTITLE14=Hayo Hayoo Ey Pa'am Bachurim
TTITLE15=Hayoo Leliot
TTITLE16=Ze Ya'avor
TTITLE17=Zohara
TTITLE18=Habayta
TTITLE19=Ani Mitsfat
TTITLE20=Kalaniy'ot
EXTD=
EXTT0=
EXTT1=
EXTT2=
EXTT3=
EXTT4=
EXTT5=
EXTT6=
EXTT7=
EXTT8=
EXTT9=
EXTT10=
EXTT11=
EXTT12=
EXTT13=
EXTT14=
EXTT15=
EXTT16=
EXTT17=
EXTT18=
EXTT19=
EXTT20=
PLAYORDER=
